<?xml version="1.0" standalone="no"?>
<!DOCTYPE svg PUBLIC "-//W3C//DTD SVG 20010904//EN"
 "http://www.w3.org/TR/2001/REC-SVG-20010904/DTD/svg10.dtd">
<svg version="1.0" xmlns="http://www.w3.org/2000/svg"
 width="247.000000pt" height="247.000000pt" viewBox="0 0 247.000000 247.000000"
 preserveAspectRatio="xMidYMid meet">
<metadata>
Created by potrace 1.14, written by Peter Selinger 2001-2017
</metadata>
<g transform="translate(0.000000,247.000000) scale(0.100000,-0.100000)"
fill="#000000" stroke="none">
<path d="M1567 1693 c-3 -5 -8 -48 -12 -97 -4 -50 -8 -97 -10 -105 -1 -9 -6
-52 -10 -96 -9 -109 -14 -163 -20 -210 -2 -22 -7 -75 -10 -117 l-7 -78 161 0
c120 0 163 3 166 13 2 6 6 42 9 79 5 74 4 75 -62 73 l-44 -1 6 40 c3 23 8 73
12 111 4 39 8 77 9 85 2 8 4 20 4 27 1 7 20 11 56 9 49 -1 55 1 56 19 0 11 3
34 5 50 12 87 12 95 -5 96 -28 2 -76 6 -86 7 -6 1 -8 24 -7 52 l4 50 -105 0
c-58 0 -108 -3 -110 -7z"/>
<path d="M59 1583 c-3 -22 -21 -197 -24 -238 -9 -102 -16 -172 -20 -195 -2
-14 -7 -55 -10 -92 l-6 -68 111 0 110 0 1 28 c0 15 2 41 4 57 6 52 15 137 21
215 3 41 8 86 9 100 2 14 4 28 4 31 1 3 26 6 56 6 l55 0 -5 -41 c-3 -23 -8
-69 -11 -103 -2 -33 -7 -76 -9 -95 -2 -18 -7 -70 -11 -115 l-7 -83 106 0 105
0 6 28 c3 15 8 59 11 97 4 39 8 81 10 95 2 14 7 61 10 105 9 116 7 112 70 113
30 0 53 -3 51 -6 -2 -4 -7 -45 -10 -92 -3 -47 -8 -96 -10 -110 -3 -14 -7 -61
-11 -105 -3 -44 -8 -93 -10 -110 -2 -16 -7 -57 -10 -90 -3 -33 -8 -79 -11
-102 l-6 -43 111 0 111 0 2 28 c0 15 2 32 3 37 1 8 6 57 20 195 1 14 6 59 9
100 4 41 9 86 11 100 2 14 6 59 10 100 4 41 9 89 10 105 2 17 6 58 10 93 l7
62 -436 0 c-240 0 -436 -3 -437 -7z"/>
<path d="M969 1578 c0 -7 -2 -20 -4 -30 -2 -9 -6 -54 -10 -100 -3 -45 -8 -96
-10 -113 -1 -16 -6 -61 -9 -100 -4 -38 -9 -86 -12 -105 -2 -20 -6 -59 -9 -88
l-5 -52 270 0 c148 0 271 3 273 8 3 4 8 41 11 82 l7 76 -148 -1 c-149 -1 -186
2 -179 14 2 3 7 42 11 86 4 44 9 89 11 100 1 11 3 31 3 46 1 24 4 25 56 25 30
0 55 -1 55 -2 0 -1 -16 -45 -35 -98 -19 -53 -35 -102 -35 -109 0 -15 202 -17
211 -2 25 39 79 221 85 285 3 41 8 78 11 83 2 4 -120 7 -271 7 -214 0 -276 -3
-277 -12z"/>
<path d="M1921 1546 c-1 -25 -3 -53 -5 -63 -2 -10 -7 -52 -11 -93 -3 -41 -8
-86 -10 -100 -3 -14 -7 -56 -10 -95 -3 -38 -9 -100 -13 -137 l-8 -68 110 0
111 0 40 38 c79 74 79 74 73 14 l-5 -52 108 0 c106 0 109 1 110 23 0 12 2 29
3 37 2 8 7 47 10 85 4 39 9 84 11 100 2 17 7 66 10 110 3 44 8 87 10 95 2 8 6
45 10 83 l6 67 -274 0 -273 0 -3 -44z m312 -131 c0 -6 -4 -50 -8 -100 -4 -49
-9 -97 -11 -105 -1 -8 -3 -25 -3 -36 -1 -19 -7 -21 -57 -22 l-56 0 6 51 c3 29
8 84 12 122 6 60 10 97 13 101 5 7 106 -4 104 -11z"/>
</g>
</svg>
