<?xml version="1.0" encoding="UTF-8" standalone="no"?>
<!DOCTYPE svg PUBLIC "-//W3C//DTD SVG 20010904//EN"
              "http://www.w3.org/TR/2001/REC-SVG-20010904/DTD/svg10.dtd">

<svg xmlns="http://www.w3.org/2000/svg"
     width="5.68889in" height="5.68889in"
     viewBox="0 0 512 512">
  <path id="Imported Path"
        fill="none" stroke="black" stroke-width="1"
        d="M 405.33,213.87
           C 405.33,213.87 405.33,106.67 405.33,106.67
             405.33,83.14 386.20,64.00 362.67,64.00
             362.67,64.00 42.67,64.00 42.67,64.00
             19.14,64.00 0.00,83.13 0.00,106.67
             0.00,106.67 0.00,320.00 0.00,320.00
             0.00,343.53 19.14,362.67 42.67,362.67
             42.67,362.67 281.88,362.67 281.88,362.67
             295.86,411.84 341.07,448.00 394.67,448.00
             415.29,448.00 435.57,442.57 453.34,432.29
             458.44,429.34 460.19,422.82 457.23,417.72
             454.28,412.62 447.75,410.85 442.66,413.83
             428.14,422.23 411.54,426.67 394.67,426.67
             341.73,426.67 298.67,383.60 298.67,330.67
             298.67,277.73 341.73,234.67 394.67,234.67
             447.60,234.67 490.67,277.73 490.67,330.67
             490.67,330.67 490.67,341.33 490.67,341.33
             490.67,353.09 481.09,362.67 469.33,362.67
             457.57,362.67 448.00,353.09 448.00,341.33
             448.00,341.33 448.00,298.67 448.00,298.67
             448.00,292.77 443.23,288.00 437.33,288.00
             434.46,288.00 431.89,289.16 429.97,291.00
             420.54,282.60 408.26,277.33 394.67,277.33
             365.26,277.33 341.33,301.26 341.33,330.67
             341.33,360.07 365.26,384.00 394.67,384.00
             410.56,384.00 424.70,376.87 434.48,365.80
             442.20,376.77 454.92,384.00 469.33,384.00
             492.87,384.00 512.00,364.87 512.00,341.33
             512.00,341.33 512.00,330.67 512.00,330.67
             512.00,269.57 465.04,219.29 405.33,213.87 Z
           M 42.67,85.33
           C 42.67,85.33 362.67,85.33 362.67,85.33
             363.11,85.33 363.48,85.56 363.92,85.59
             363.92,85.59 211.44,210.75 211.44,210.75
             206.01,214.17 198.15,213.46 194.62,211.29
             194.62,211.29 41.43,85.58 41.43,85.58
             41.86,85.56 42.23,85.33 42.67,85.33 Z
           M 384.00,213.87
           C 324.29,219.29 277.33,269.57 277.33,330.67
             277.33,334.27 277.55,337.82 277.87,341.33
             277.87,341.33 42.67,341.33 42.67,341.33
             30.91,341.33 21.33,331.76 21.33,320.00
             21.33,320.00 21.33,106.67 21.33,106.67
             21.33,103.65 22.00,100.79 23.14,98.19
             23.14,98.19 182.02,228.48 182.02,228.48
             188.23,232.53 195.37,234.67 202.67,234.67
             209.69,234.67 216.55,232.69 222.59,228.94
             223.20,228.62 223.77,228.23 224.31,227.78
             224.31,227.78 382.19,98.18 382.19,98.18
             383.33,100.79 384.00,103.65 384.00,106.67
             384.00,106.67 384.00,213.87 384.00,213.87
             384.00,213.87 384.00,213.87 384.00,213.87 Z
           M 394.67,362.67
           C 377.02,362.67 362.67,348.31 362.67,330.67
             362.67,313.02 377.02,298.67 394.67,298.67
             412.31,298.67 426.67,313.02 426.67,330.67
             426.67,348.31 412.31,362.67 394.67,362.67 Z" />
</svg>
