<svg width="32" height="32" viewBox="0 0 32 32" fill="none" xmlns="http://www.w3.org/2000/svg">
<g clip-path="url(#clip0)">
<path d="M31.9689 9.40809C31.8939 7.7078 31.619 6.53888 31.2251 5.52598C30.8188 4.45082 30.1937 3.48823 29.3747 2.68802C28.5744 1.87537 27.6055 1.2439 26.5428 0.843915C25.524 0.450039 24.3612 0.175083 22.6609 0.100117C20.9479 0.0188025 20.4041 0 16.0595 0C11.7149 0 11.1711 0.0188025 9.46449 0.0937683C7.76421 0.168734 6.59528 0.443934 5.58263 0.837566C4.50722 1.2439 3.54463 1.86902 2.74442 2.68802C1.93176 3.48823 1.30054 4.45717 0.900312 5.51988C0.506436 6.53888 0.23148 7.70146 0.156514 9.40174C0.075199 11.1147 0.0563965 11.6585 0.0563965 16.0031C0.0563965 20.3477 0.075199 20.8915 0.150165 22.5982C0.225131 24.2984 0.500331 25.4674 0.894207 26.4803C1.30054 27.5554 1.93176 28.518 2.74442 29.3182C3.54463 30.1309 4.51357 30.7624 5.57628 31.1623C6.59528 31.5562 7.75786 31.8312 9.45839 31.9061C11.1648 31.9813 11.7088 31.9999 16.0534 31.9999C20.398 31.9999 20.9418 31.9813 22.6485 31.9061C24.3488 31.8312 25.5177 31.5562 26.5303 31.1623C28.6809 30.3309 30.3812 28.6306 31.2127 26.4803C31.6063 25.4613 31.8815 24.2984 31.9565 22.5982C32.0314 20.8915 32.0502 20.3477 32.0502 16.0031C32.0502 11.6585 32.0439 11.1147 31.9689 9.40809ZM29.0872 22.4731C29.0184 24.0359 28.7559 24.8799 28.5371 25.4425C27.9994 26.8365 26.893 27.943 25.4989 28.4807C24.9363 28.6995 24.0863 28.962 22.5296 29.0306C20.8417 29.1058 20.3355 29.1243 16.0659 29.1243C11.7962 29.1243 11.2837 29.1058 9.60197 29.0306C8.03916 28.962 7.19525 28.6995 6.63264 28.4807C5.9389 28.2243 5.30743 27.8179 4.79488 27.2866C4.26352 26.7677 3.85719 26.1426 3.60079 25.4488C3.382 24.8862 3.1195 24.0359 3.05088 22.4795C2.97567 20.7917 2.95711 20.2852 2.95711 16.0156C2.95711 11.7459 2.97567 11.2334 3.05088 9.55192C3.1195 7.98911 3.382 7.14519 3.60079 6.58258C3.85719 5.8886 4.26352 5.25737 4.80122 4.74458C5.31988 4.21323 5.945 3.8069 6.63899 3.55074C7.2016 3.33195 8.05186 3.06945 9.60832 3.00059C11.2962 2.92562 11.8026 2.90682 16.072 2.90682C20.348 2.90682 20.8542 2.92562 22.5359 3.00059C24.0987 3.06945 24.9426 3.33195 25.5052 3.55074C26.199 3.8069 26.8305 4.21323 27.343 4.74458C27.8744 5.26348 28.2807 5.8886 28.5371 6.58258C28.7559 7.14519 29.0184 7.99521 29.0872 9.55192C29.1622 11.2397 29.181 11.7459 29.181 16.0156C29.181 20.2852 29.1622 20.7853 29.0872 22.4731Z" fill="#DFBC3E"/>
<path d="M16.0592 7.78276C11.521 7.78276 7.83887 11.4646 7.83887 16.0031C7.83887 20.5416 11.521 24.2235 16.0592 24.2235C20.5977 24.2235 24.2796 20.5416 24.2796 16.0031C24.2796 11.4646 20.5977 7.78276 16.0592 7.78276ZM16.0592 21.3355C13.115 21.3355 10.7269 18.9475 10.7269 16.0031C10.7269 13.0587 13.115 10.6708 16.0592 10.6708C19.0036 10.6708 21.3916 13.0587 21.3916 16.0031C21.3916 18.9475 19.0036 21.3355 16.0592 21.3355Z" fill="#DFBC3E"/>
<path d="M26.5239 7.45776C26.5239 8.51754 25.6646 9.37683 24.6046 9.37683C23.5448 9.37683 22.6855 8.51754 22.6855 7.45776C22.6855 6.39774 23.5448 5.53868 24.6046 5.53868C25.6646 5.53868 26.5239 6.39774 26.5239 7.45776Z" fill="#DFBC3E"/>
</g>
<defs>
<clipPath id="clip0">
<rect width="32" height="32" fill="white"/>
</clipPath>
</defs>
</svg>
