<svg width="36" height="36" viewBox="0 0 36 36" fill="none" xmlns="http://www.w3.org/2000/svg">
<path d="M0.709427 29.3925C4.04243 31.5075 7.92143 32.625 11.9264 32.625C17.7914 32.625 23.1659 30.372 27.0614 26.2815C30.7889 22.3665 32.8394 17.106 32.7374 11.7675C34.1504 10.5585 35.8124 8.24999 35.8124 5.99999C35.8124 5.13749 34.8764 4.58999 34.1174 5.02949C32.7899 5.80949 31.5794 6.01349 30.3344 5.66399C27.7919 3.18599 24.0074 2.66399 20.8184 4.38299C18.0314 5.88299 16.4819 8.62799 16.6214 11.628C11.9129 11.0535 7.56293 8.69249 4.52993 5.02349C4.03193 4.42499 3.08693 4.49549 2.69093 5.17349C1.22993 7.67549 1.24493 10.575 2.51543 12.9165C1.91093 13.023 1.53743 13.5315 1.53743 14.082C1.53743 16.4355 2.59643 18.5985 4.30193 20.0745C3.98393 20.3805 3.87893 20.835 4.01393 21.24C4.76393 23.493 6.46193 25.254 8.58443 26.136C6.27593 27.2385 3.72293 27.606 1.45043 27.327C0.274427 27.168 -0.306073 28.749 0.709427 29.3925ZM12.2339 26.5215C13.0754 25.875 12.6284 24.528 11.5724 24.5055C9.71243 24.4665 8.01893 23.55 6.96443 22.1085C7.47293 22.0755 7.99943 21.9975 8.50043 21.8625C9.64193 21.5535 9.58793 19.9065 8.42843 19.674C6.32393 19.251 4.67243 17.718 4.05293 15.744C4.61843 15.8835 5.19443 15.9615 5.76893 15.972C6.90743 15.978 7.33793 14.5185 6.40943 13.908C4.31693 12.5295 3.42443 10.095 4.01543 7.80599C7.66943 11.508 12.6269 13.7385 17.8709 13.9905C18.6224 14.037 19.1864 13.3305 19.0214 12.615C18.3089 9.52649 20.0339 7.36199 21.8864 6.36449C23.7194 5.37449 26.6624 5.06549 28.9184 7.43249C29.5889 8.13899 31.8509 8.16599 33.0014 7.89749C32.4854 8.86949 31.6919 9.79199 30.9494 10.311C30.6329 10.533 30.4514 10.902 30.4709 11.2875C30.7124 16.215 28.8764 21.114 25.4339 24.7275C21.9659 28.368 17.1704 30.3735 11.9279 30.3735C9.84293 30.3735 7.79843 30.0345 5.86643 29.3805C8.17643 28.9335 10.3709 27.9555 12.2339 26.5215Z" fill="#DFBC3E"/>
</svg>
